<svg xmlns="http://www.w3.org/2000/svg" viewBox="0 0 160.54 74.54"><defs><style>.cls-1{fill:#221f1f;}.cls-2{fill:#005583;}.cls-3{fill:#2e7fc1;}</style></defs><title>Asset 1</title><g id="Layer_2" data-name="Layer 2"><g id="Layer_1-2" data-name="Layer 1"><path class="cls-1" d="M70.39,13.87h1.29v14.4L80,19.67h1.71l-5.87,6L81.9,33.1H80.27l-5.32-6.56-3.27,3.29V33.1H70.39Z"/><path class="cls-1" d="M83.56,26.41v-.05c0-3.9,2.74-7,6.37-7s6.16,3.05,6.16,7a3.36,3.36,0,0,1,0,.53H84.93A5.33,5.33,0,0,0,90.2,32.2a6,6,0,0,0,4.61-2.11l.9.79a7.06,7.06,0,0,1-5.56,2.53A6.67,6.67,0,0,1,83.56,26.41Zm11.14-.66C94.52,23,93,20.54,89.88,20.54c-2.66,0-4.71,2.24-5,5.21Z"/><path class="cls-1" d="M98.7,31.41l.76-1a7.88,7.88,0,0,0,4.82,1.76c1.82,0,3.24-1,3.24-2.55v-.05c0-1.58-1.69-2.16-3.55-2.69-2.19-.63-4.61-1.29-4.61-3.69v-.05c0-2.16,1.82-3.71,4.42-3.71a9.06,9.06,0,0,1,4.77,1.47L107.87,22a7.71,7.71,0,0,0-4.13-1.34c-1.84,0-3.05,1-3.05,2.34V23c0,1.5,1.82,2.05,3.74,2.61,2.16.61,4.42,1.4,4.42,3.77v.05c0,2.4-2.05,3.92-4.63,3.92A9.2,9.2,0,0,1,98.7,31.41Z"/><path class="cls-1" d="M113.5,14.4h1.61v1.76H113.5Zm.16,5.27H115V33.1h-1.29Z"/><path class="cls-1" d="M121.38,36.31l2.05-3a9.21,9.21,0,0,1-4.56-1.9l.76-1a7.88,7.88,0,0,0,4.82,1.76c1.82,0,3.24-1,3.24-2.55v-.05c0-1.58-1.69-2.16-3.55-2.69-2.19-.63-4.61-1.29-4.61-3.69v-.05c0-2.16,1.82-3.71,4.42-3.71a9.06,9.06,0,0,1,4.77,1.47L128,22a7.71,7.71,0,0,0-4.13-1.34c-1.84,0-3.05,1-3.05,2.34V23c0,1.5,1.82,2.05,3.74,2.61,2.16.61,4.42,1.4,4.42,3.77v.05c0,2.32-1.92,3.82-4.4,3.92L122.83,37Z"/><path class="cls-1" d="M132.2,26.41v-.05c0-3.9,2.74-7,6.37-7s6.16,3.05,6.16,7a3.36,3.36,0,0,1,0,.53H133.57a5.33,5.33,0,0,0,5.27,5.29,6,6,0,0,0,4.61-2.11l.9.79a7.06,7.06,0,0,1-5.56,2.53A6.67,6.67,0,0,1,132.2,26.41Zm11.14-.66c-.18-2.71-1.74-5.21-4.82-5.21-2.66,0-4.71,2.24-5,5.21Z"/><path class="cls-1" d="M149,19.67h1.29v2.5a5.26,5.26,0,0,1,4.85-2.82c3.4,0,5.37,2.32,5.37,5.53V33.1h-1.29v-8c0-2.77-1.55-4.58-4.27-4.58a4.6,4.6,0,0,0-4.66,4.79V33.1H149Z"/><path class="cls-1" d="M79.58,42.87H82.9l-5.53,14.3c-1.11,2.84-2.34,3.9-4.58,3.9a6.56,6.56,0,0,1-3.29-.84l1.08-2.37a3.92,3.92,0,0,0,1.87.53c.9,0,1.45-.4,2-1.58L68.63,42.87h3.42L76,53.19Z"/><path class="cls-1" d="M83.56,49.9v-.05a7.41,7.41,0,0,1,14.83-.05v.05a7.27,7.27,0,0,1-7.45,7.24A7.19,7.19,0,0,1,83.56,49.9Zm11.64,0v-.05a4.3,4.3,0,0,0-4.27-4.48,4.17,4.17,0,0,0-4.19,4.42v.05A4.29,4.29,0,0,0,91,54.3,4.17,4.17,0,0,0,95.2,49.9Z"/><path class="cls-1" d="M100.76,37.55h3.19V56.77h-3.19Z"/><path class="cls-1" d="M107.76,37.55h3.19V56.77h-3.19Z"/><path class="cls-1" d="M113.66,52.77v-.05c0-3,2.34-4.48,5.74-4.48a11.61,11.61,0,0,1,3.74.58v-.34c0-2-1.21-3-3.45-3a9.68,9.68,0,0,0-4,.87l-.84-2.5a11.86,11.86,0,0,1,5.24-1.13,6.23,6.23,0,0,1,4.61,1.55,5.77,5.77,0,0,1,1.5,4.29v8.24h-3.11V55a5.65,5.65,0,0,1-4.53,2C116,57.06,113.66,55.56,113.66,52.77Zm9.53-1v-.95a8.84,8.84,0,0,0-3.16-.55c-2.05,0-3.27.87-3.27,2.32v.05c0,1.34,1.18,2.11,2.71,2.11C121.59,54.75,123.2,53.53,123.2,51.77Z"/><path class="cls-1" d="M129.52,42.87h3.19V46a4.93,4.93,0,0,1,4.92-3.4V46h-.18c-2.79,0-4.74,1.82-4.74,5.5v5.29h-3.19Z"/><circle class="cls-2" cx="37.53" cy="17.87" r="9.56"/><path class="cls-2" d="M38,34V64.25S0,51,0,28.4V0L.1.21C2.25,21.55,38,34,38,34Z"/><circle class="cls-3" cx="18.19" cy="28.5" r="9.56"/><path class="cls-3" d="M17.77,44.33V74.54s38-13.28,38-35.84V10.29l-.1.21C53.48,31.83,17.77,44.33,17.77,44.33Z"/></g></g></svg>